<?xml version="1.0" encoding="utf-8"?>
<!-- Generator: Adobe Illustrator 18.1.1, SVG Export Plug-In . SVG Version: 6.00 Build 0)  -->
<!DOCTYPE svg PUBLIC "-//W3C//DTD SVG 1.1//EN" "http://www.w3.org/Graphics/SVG/1.1/DTD/svg11.dtd">
<svg version="1.1" id="Ebene_1" xmlns="http://www.w3.org/2000/svg" xmlns:xlink="http://www.w3.org/1999/xlink" x="0px" y="0px"
	 width="48px" height="48px" viewBox="-275 377 48 48" enable-background="new -275 377 48 48" xml:space="preserve">
<path fill="#23569B" d="M-243,399c3.3,0,6-2.7,6-6s-2.7-6-6-6s-6,2.7-6,6S-246.3,399-243,399z M-259,399c3.3,0,6-2.7,6-6s-2.7-6-6-6
	s-6,2.7-6,6S-262.3,399-259,399z M-259,403c-4.7,0-14,2.3-14,7v5h28v-5C-245,405.3-254.3,403-259,403z M-243,403
	c-0.6,0-1.2,0-1.9,0.1c2.3,1.7,3.9,3.9,3.9,6.9v5h12v-5C-229,405.3-238.3,403-243,403z"/>
</svg>
