<?xml version="1.0" encoding="utf-8"?>
<!-- Generator: Adobe Illustrator 18.1.1, SVG Export Plug-In . SVG Version: 6.00 Build 0)  -->
<!DOCTYPE svg PUBLIC "-//W3C//DTD SVG 1.1//EN" "http://www.w3.org/Graphics/SVG/1.1/DTD/svg11.dtd">
<svg version="1.1" xmlns="http://www.w3.org/2000/svg" xmlns:xlink="http://www.w3.org/1999/xlink" x="0px" y="0px" width="294px"
	 height="1721px" viewBox="0 0 294 1721" enable-background="new 0 0 294 1721" xml:space="preserve">
<g id="Ebene_1">
</g>
<g id="Ebene_2">
	<g>
		<polygon fill="#EB435B" points="85.8,208.2 85.8,85.8 208.2,85.8 		"/>
		<polygon fill="#C5051B" points="294,0 294,294 0,294 		"/>
		<polygon fill="#EA0000" points="85.8,208.2 0,171.6 0,294 		"/>
		<polygon fill="#EA0000" points="208.2,85.9 171.6,0 294,0 		"/>
		<polygon fill="#C5051B" points="208.2,85.8 171.6,0 85.8,85.8 		"/>
		<polygon fill="#C5051B" points="85.8,208.2 0,171.6 85.8,85.8 		"/>
		<polygon fill="#EA0000" points="208.2,85.8 85.8,208.2 293.9,293.9 		"/>
	</g>
	<g>
		<polygon fill="#EB435B" points="147.9,439.3 147.9,647.6 -60.5,647.6 		"/>
		<polygon fill="#C5051B" points="-206.6,793.7 -206.6,293.1 294,293.1 		"/>
		<polygon fill="#EA0000" points="147.8,439.2 293.9,501.5 293.9,293.1 		"/>
		<polygon fill="#EA0000" points="-60.5,647.5 1.8,793.6 -206.6,793.6 		"/>
		<polygon fill="#C5051B" points="-60.5,647.6 1.8,793.7 147.9,647.6 		"/>
		<polygon fill="#C5051B" points="147.9,439.2 294,501.5 147.9,647.6 		"/>
		<polygon fill="#EA0000" points="-60.5,647.6 147.9,439.3 -206.4,293.3 		"/>
	</g>
	<g>
		<polygon fill="#EB435B" points="567.2,1157.8 293.9,1431 20.6,1157.8 		"/>
		<polygon fill="#C5051B" points="-362.6,1157.7 293.9,501.2 950.4,1157.7 		"/>
		<polygon fill="#EA0000" points="20.8,1157.6 -89.2,1430.9 -362.5,1157.6 		"/>
		<polygon fill="#C5051B" points="20.7,1157.7 -89.3,1431 294,1431 		"/>
		<polygon fill="#C5051B" points="567.1,1157.7 677.1,1431 293.9,1431 		"/>
		<polygon fill="#EA0000" points="20.6,1157.8 567.2,1157.8 293.9,501.6 		"/>
	</g>
	<g>
		<polygon fill="#EB435B" points="208.2,1516.8 208.2,1639.1 85.8,1639.1 		"/>
		<polygon fill="#C5051B" points="0,1724.9 0,1430.9 294,1430.9 		"/>
		<polygon fill="#EA0000" points="208.2,1516.7 294,1553.3 294,1430.9 		"/>
		<polygon fill="#EA0000" points="85.8,1639.1 122.4,1724.9 0,1724.9 		"/>
		<polygon fill="#C5051B" points="85.8,1639.1 122.4,1724.9 208.2,1639.1 		"/>
		<polygon fill="#C5051B" points="208.2,1516.8 294,1553.3 208.2,1639.1 		"/>
		<polygon fill="#EA0000" points="85.8,1639.1 208.2,1516.8 0.1,1431 		"/>
	</g>
</g>
</svg>
